# xmcd CD database file
#
# Track frame offsets:
#	150
#	12125
#	25457
#	37970
#	49970
#	60912
#	72492
#	85947
#	96637
#	111195
#	127525
#	132027
#	136760
#	150310
#	163002
#
# Disc length: 2356 seconds
#
# Revision: 2
# Processed by: cddbd v1.5.2PL0 Copyright (c) Steve Scherf et al.
# Submitted via: CDex 1.91
#
DISCID=ba09320f
DTITLE=The Platters - Only You
DYEAR=1960
DGENRE=Britpop
TTITLE0=The Great Pretender
TTITLE1=My Prayer
TTITLE2=Twilight Time
TTITLE3=Remember When
TTITLE4=Smoke Gets in Your Eyes
TTITLE5=Only You
TTITLE6=He's Mine
TTITLE7=Red Sails in the Sunset
TTITLE8=Harbor Lights
TTITLE9=Old Man River
TTITLE10=Heaven on Earth
TTITLE11=(You've Got) The Magic Touch
TTITLE12=Sunday with You
TTITLE13=Crying in the Chapel
TTITLE14=Tell the World
EXTD=YEAR: 1960
EXTT0=
EXTT1=
EXTT2=
EXTT3=
EXTT4=
EXTT5=
EXTT6=
EXTT7=
EXTT8=
EXTT9=
EXTT10=
EXTT11=
EXTT12=
EXTT13=
EXTT14=
PLAYORDER=
